<svg width="66" height="66" viewBox="0 0 66 66" fill="none" xmlns="http://www.w3.org/2000/svg">
<path d="M38.5 39.193V44.9389C36.7796 44.3308 34.9286 44 33 44C23.8873 44 16.5 51.3873 16.5 60.5H11C11 48.3497 20.8497 38.5 33 38.5C34.8992 38.5 36.7422 38.7406 38.5 39.193ZM33 35.75C23.8837 35.75 16.5 28.3663 16.5 19.25C16.5 10.1337 23.8837 2.75 33 2.75C42.1163 2.75 49.5 10.1337 49.5 19.25C49.5 28.3663 42.1163 35.75 33 35.75ZM33 30.25C39.0775 30.25 44 25.3275 44 19.25C44 13.1725 39.0775 8.25 33 8.25C26.9225 8.25 22 13.1725 22 19.25C22 25.3275 26.9225 30.25 33 30.25ZM55 46.75H63.25V52.25H55V61.875L41.25 49.5L55 37.125V46.75Z" fill="white"/>
<path d="M38.5 39.193V44.9389C36.7796 44.3308 34.9286 44 33 44C23.8873 44 16.5 51.3873 16.5 60.5H11C11 48.3497 20.8497 38.5 33 38.5C34.8992 38.5 36.7422 38.7406 38.5 39.193ZM33 35.75C23.8837 35.75 16.5 28.3663 16.5 19.25C16.5 10.1337 23.8837 2.75 33 2.75C42.1163 2.75 49.5 10.1337 49.5 19.25C49.5 28.3663 42.1163 35.75 33 35.75ZM33 30.25C39.0775 30.25 44 25.3275 44 19.25C44 13.1725 39.0775 8.25 33 8.25C26.9225 8.25 22 13.1725 22 19.25C22 25.3275 26.9225 30.25 33 30.25ZM55 46.75H63.25V52.25H55V61.875L41.25 49.5L55 37.125V46.75Z" fill="#789940"/>
<path d="M55 46.75H63.25V52.25H55V61.875L41.25 49.5L55 37.125V46.75Z" fill="#EC6B0F"/>
</svg>
