<svg width="25" height="24" viewBox="0 0 25 24" fill="none" xmlns="http://www.w3.org/2000/svg">
<path d="M17.5 2C18.0523 2 18.5 2.44772 18.5 3V7H21.5C22.0523 7 22.5 7.44772 22.5 8V18C22.5 18.5523 22.0523 19 21.5 19H18.5V21C18.5 21.5523 18.0523 22 17.5 22H7.5C6.94772 22 6.5 21.5523 6.5 21V19H3.5C2.94772 19 2.5 18.5523 2.5 18V8C2.5 7.44772 2.94772 7 3.5 7H6.5V3C6.5 2.44772 6.94772 2 7.5 2H17.5ZM16.5 17H8.5V20H16.5V17ZM20.5 9H4.5V17H6.5V16C6.5 15.4477 6.94772 15 7.5 15H17.5C18.0523 15 18.5 15.4477 18.5 16V17H20.5V9ZM8.5 10V12H5.5V10H8.5ZM16.5 4H8.5V7H16.5V4Z" fill="white"/>
</svg>
