<svg width="66" height="66" viewBox="0 0 66 66" fill="none" xmlns="http://www.w3.org/2000/svg">
<path d="M16.5 27.5V55H52.25V27.5H16.5ZM49.5 22H55C56.5188 22 57.75 23.2312 57.75 24.75V57.75C57.75 59.2688 56.5188 60.5 55 60.5H11C9.48123 60.5 8.25 59.2688 8.25 57.75V24.75C8.25 23.2312 9.48123 22 11 22H16.5V19.25C16.5 10.1373 23.8873 2.75 33 2.75C42.1127 2.75 49.5 10.1373 49.5 19.25V22ZM44 22V19.25C44 13.1749 39.075 8.25 33 8.25C26.9249 8.25 22 13.1749 22 19.25V22H44ZM19.25 30.25H24.75V35.75H19.25V30.25ZM19.25 38.5H24.75V44H19.25V38.5ZM19.25 46.75H24.75V52.25H19.25V46.75Z" fill="#789940"/>
<path d="M19.25 30.25H24.75V35.75H19.25V30.25ZM19.25 38.5H24.75V44H19.25V38.5ZM19.25 46.75H24.75V52.25H19.25V46.75Z" fill="#EC6B0F"/>
</svg>
