<svg width="56" height="56" viewBox="0 0 56 56" fill="none" xmlns="http://www.w3.org/2000/svg">
<path d="M44.3333 23.3333H46.6667C47.9554 23.3333 49 24.378 49 25.6667V49C49 50.2887 47.9554 51.3333 46.6667 51.3333H9.33333C8.04468 51.3333 7 50.2887 7 49V25.6667C7 24.378 8.04468 23.3333 9.33333 23.3333H11.6667V21C11.6667 11.9794 18.9794 4.66666 28 4.66666C37.0207 4.66666 44.3333 11.9794 44.3333 21V23.3333ZM11.6667 28V46.6667H44.3333V28H11.6667ZM25.6667 32.6667H30.3333V42H25.6667V32.6667ZM39.6667 23.3333V21C39.6667 14.5567 34.4433 9.33333 28 9.33333C21.5567 9.33333 16.3333 14.5567 16.3333 21V23.3333H39.6667Z" fill="white"/>
</svg>
