<svg width="66" height="66" viewBox="0 0 66 66" fill="none" xmlns="http://www.w3.org/2000/svg">
<path d="M55 60.5H49.5V55C49.5 50.4435 45.8065 46.75 41.25 46.75H24.75C20.1937 46.75 16.5 50.4435 16.5 55V60.5H11V55C11 47.4062 17.1561 41.25 24.75 41.25H41.25C48.8438 41.25 55 47.4062 55 55V60.5ZM33 35.75C23.8873 35.75 16.5 28.3627 16.5 19.25C16.5 10.1373 23.8873 2.75 33 2.75C42.1127 2.75 49.5 10.1373 49.5 19.25C49.5 28.3627 42.1127 35.75 33 35.75ZM33 30.25C39.075 30.25 44 25.3251 44 19.25C44 13.1749 39.075 8.25 33 8.25C26.9249 8.25 22 13.1749 22 19.25C22 25.3251 26.9249 30.25 33 30.25Z" fill="#789940"/>
<path d="M33 35.75C23.8873 35.75 16.5 28.3627 16.5 19.25C16.5 10.1373 23.8873 2.75 33 2.75C42.1127 2.75 49.5 10.1373 49.5 19.25C49.5 28.3627 42.1127 35.75 33 35.75ZM33 30.25C39.075 30.25 44 25.3251 44 19.25C44 13.1749 39.075 8.25 33 8.25C26.9249 8.25 22 13.1749 22 19.25C22 25.3251 26.9249 30.25 33 30.25Z" fill="#EC6B0F"/>
</svg>
