<svg width="56" height="56" viewBox="0 0 56 56" fill="none" xmlns="http://www.w3.org/2000/svg">
<path d="M46.6663 51.3333H41.9997V46.6667C41.9997 42.8006 38.8658 39.6667 34.9997 39.6667H20.9997C17.1337 39.6667 13.9997 42.8006 13.9997 46.6667V51.3333H9.33301V46.6667C9.33301 40.2234 14.5564 35 20.9997 35H34.9997C41.4429 35 46.6663 40.2234 46.6663 46.6667V51.3333ZM27.9997 30.3333C20.2677 30.3333 13.9997 24.0653 13.9997 16.3333C13.9997 8.60134 20.2677 2.33333 27.9997 2.33333C35.7316 2.33333 41.9997 8.60134 41.9997 16.3333C41.9997 24.0653 35.7316 30.3333 27.9997 30.3333ZM27.9997 25.6667C33.1542 25.6667 37.333 21.488 37.333 16.3333C37.333 11.1787 33.1542 7 27.9997 7C22.845 7 18.6663 11.1787 18.6663 16.3333C18.6663 21.488 22.845 25.6667 27.9997 25.6667Z" fill="white"/>
</svg>
